<mxfile host="app.diagrams.net" agent="Mozilla/5.0 (X11; Linux x86_64; rv:137.0) Gecko/20100101 Firefox/137.0" version="26.2.13">
  <diagram name="Page-1" id="NowD9PZuOt3QN20wQmkZ">
    <mxGraphModel dx="1428" dy="754" grid="1" gridSize="10" guides="1" tooltips="1" connect="1" arrows="1" fold="1" page="1" pageScale="1" pageWidth="850" pageHeight="1100" math="0" shadow="0">
      <root>
        <mxCell id="0" />
        <mxCell id="1" parent="0" />
        <mxCell id="bClkpf7e0bwbQJ0J--QN-3" value="" style="edgeStyle=orthogonalEdgeStyle;rounded=0;orthogonalLoop=1;jettySize=auto;html=1;" parent="1" source="bClkpf7e0bwbQJ0J--QN-1" target="bClkpf7e0bwbQJ0J--QN-2" edge="1">
          <mxGeometry relative="1" as="geometry" />
        </mxCell>
        <mxCell id="bClkpf7e0bwbQJ0J--QN-1" value="Preprocessing" style="rounded=1;whiteSpace=wrap;html=1;fillColor=#ffe6cc;strokeColor=#d79b00;" parent="1" vertex="1">
          <mxGeometry x="341" y="120" width="120" height="60" as="geometry" />
        </mxCell>
        <mxCell id="bClkpf7e0bwbQJ0J--QN-13" style="edgeStyle=orthogonalEdgeStyle;rounded=0;orthogonalLoop=1;jettySize=auto;html=1;entryX=0.5;entryY=0;entryDx=0;entryDy=0;" parent="1" source="bClkpf7e0bwbQJ0J--QN-2" target="bClkpf7e0bwbQJ0J--QN-4" edge="1">
          <mxGeometry relative="1" as="geometry" />
        </mxCell>
        <mxCell id="bClkpf7e0bwbQJ0J--QN-14" style="edgeStyle=orthogonalEdgeStyle;rounded=0;orthogonalLoop=1;jettySize=auto;html=1;entryX=0.5;entryY=0;entryDx=0;entryDy=0;" parent="1" target="bClkpf7e0bwbQJ0J--QN-6" edge="1">
          <mxGeometry relative="1" as="geometry">
            <mxPoint x="400" y="380" as="sourcePoint" />
          </mxGeometry>
        </mxCell>
        <mxCell id="bClkpf7e0bwbQJ0J--QN-15" style="edgeStyle=orthogonalEdgeStyle;rounded=0;orthogonalLoop=1;jettySize=auto;html=1;entryX=0.5;entryY=0;entryDx=0;entryDy=0;" parent="1" target="bClkpf7e0bwbQJ0J--QN-5" edge="1">
          <mxGeometry relative="1" as="geometry">
            <mxPoint x="400" y="380" as="sourcePoint" />
          </mxGeometry>
        </mxCell>
        <mxCell id="bClkpf7e0bwbQJ0J--QN-2" value="Object detection" style="rounded=1;whiteSpace=wrap;html=1;fillColor=#f8cecc;strokeColor=#b85450;" parent="1" vertex="1">
          <mxGeometry x="341" y="240" width="120" height="60" as="geometry" />
        </mxCell>
        <mxCell id="Erj5YXSd0huWVHEirU5Y-5" style="edgeStyle=orthogonalEdgeStyle;rounded=0;orthogonalLoop=1;jettySize=auto;html=1;endArrow=classic;startFill=0;entryX=0.5;entryY=0;entryDx=0;entryDy=0;endFill=1;" edge="1" parent="1" source="bClkpf7e0bwbQJ0J--QN-4" target="Erj5YXSd0huWVHEirU5Y-8">
          <mxGeometry relative="1" as="geometry">
            <mxPoint x="401" y="570" as="targetPoint" />
            <Array as="points">
              <mxPoint x="401" y="590" />
              <mxPoint x="300" y="590" />
            </Array>
          </mxGeometry>
        </mxCell>
        <mxCell id="bClkpf7e0bwbQJ0J--QN-4" value="Preliminary text association" style="rounded=1;whiteSpace=wrap;html=1;fillColor=#d5e8d4;strokeColor=#82b366;" parent="1" vertex="1">
          <mxGeometry x="341" y="430" width="120" height="60" as="geometry" />
        </mxCell>
        <mxCell id="Erj5YXSd0huWVHEirU5Y-6" style="edgeStyle=orthogonalEdgeStyle;rounded=0;orthogonalLoop=1;jettySize=auto;html=1;endArrow=none;startFill=0;" edge="1" parent="1" source="bClkpf7e0bwbQJ0J--QN-5">
          <mxGeometry relative="1" as="geometry">
            <mxPoint x="400" y="530" as="targetPoint" />
            <Array as="points">
              <mxPoint x="580" y="530" />
            </Array>
          </mxGeometry>
        </mxCell>
        <mxCell id="bClkpf7e0bwbQJ0J--QN-5" value="Elements relations building" style="rounded=1;whiteSpace=wrap;html=1;fillColor=#d5e8d4;strokeColor=#82b366;" parent="1" vertex="1">
          <mxGeometry x="520" y="430" width="120" height="60" as="geometry" />
        </mxCell>
        <mxCell id="Erj5YXSd0huWVHEirU5Y-4" style="edgeStyle=orthogonalEdgeStyle;rounded=0;orthogonalLoop=1;jettySize=auto;html=1;endArrow=none;startFill=0;" edge="1" parent="1" source="bClkpf7e0bwbQJ0J--QN-6">
          <mxGeometry relative="1" as="geometry">
            <mxPoint x="400" y="530" as="targetPoint" />
            <Array as="points">
              <mxPoint x="220" y="530" />
              <mxPoint x="400" y="530" />
            </Array>
          </mxGeometry>
        </mxCell>
        <mxCell id="bClkpf7e0bwbQJ0J--QN-6" value="Text digitization" style="rounded=1;whiteSpace=wrap;html=1;fillColor=#d5e8d4;strokeColor=#82b366;" parent="1" vertex="1">
          <mxGeometry x="160" y="430" width="120" height="60" as="geometry" />
        </mxCell>
        <mxCell id="bClkpf7e0bwbQJ0J--QN-7" value="" style="sketch=0;outlineConnect=0;fontColor=#232F3E;gradientColor=none;fillColor=#ED65ED;strokeColor=none;dashed=0;verticalLabelPosition=bottom;verticalAlign=top;align=center;html=1;fontSize=12;fontStyle=0;aspect=fixed;pointerEvents=1;shape=mxgraph.aws4.container_registry_image;" parent="1" vertex="1">
          <mxGeometry x="411" y="200" width="28" height="28" as="geometry" />
        </mxCell>
        <mxCell id="bClkpf7e0bwbQJ0J--QN-9" value="" style="edgeStyle=orthogonalEdgeStyle;rounded=0;orthogonalLoop=1;jettySize=auto;html=1;" parent="1" source="bClkpf7e0bwbQJ0J--QN-8" target="bClkpf7e0bwbQJ0J--QN-1" edge="1">
          <mxGeometry relative="1" as="geometry" />
        </mxCell>
        <mxCell id="bClkpf7e0bwbQJ0J--QN-10" value="" style="edgeStyle=orthogonalEdgeStyle;rounded=0;orthogonalLoop=1;jettySize=auto;html=1;" parent="1" source="bClkpf7e0bwbQJ0J--QN-8" target="bClkpf7e0bwbQJ0J--QN-1" edge="1">
          <mxGeometry relative="1" as="geometry" />
        </mxCell>
        <mxCell id="bClkpf7e0bwbQJ0J--QN-8" value="" style="sketch=0;outlineConnect=0;fontColor=#232F3E;gradientColor=none;fillColor=#ED7100;strokeColor=none;dashed=0;verticalLabelPosition=bottom;verticalAlign=top;align=center;html=1;fontSize=12;fontStyle=0;aspect=fixed;pointerEvents=1;shape=mxgraph.aws4.container_registry_image;" parent="1" vertex="1">
          <mxGeometry x="377" y="30" width="48" height="48" as="geometry" />
        </mxCell>
        <mxCell id="bClkpf7e0bwbQJ0J--QN-11" value="&lt;b&gt;Input&lt;/b&gt; (raw image)" style="text;html=1;align=center;verticalAlign=middle;resizable=0;points=[];autosize=1;strokeColor=none;fillColor=none;" parent="1" vertex="1">
          <mxGeometry x="425" y="39" width="120" height="30" as="geometry" />
        </mxCell>
        <mxCell id="bClkpf7e0bwbQJ0J--QN-12" value="" style="shape=image;html=1;verticalAlign=top;verticalLabelPosition=bottom;labelBackgroundColor=#ffffff;imageAspect=0;aspect=fixed;image=https://cdn1.iconfinder.com/data/icons/bootstrap/16/bounding-box-circles-128.png" parent="1" vertex="1">
          <mxGeometry x="411" y="330" width="28" height="28" as="geometry" />
        </mxCell>
        <mxCell id="bClkpf7e0bwbQJ0J--QN-17" value="&lt;div&gt;&lt;b&gt;Bounding box&lt;/b&gt;&amp;nbsp;&lt;/div&gt;of nodes, arrows and texts" style="text;html=1;align=center;verticalAlign=middle;resizable=0;points=[];autosize=1;strokeColor=none;fillColor=none;" parent="1" vertex="1">
          <mxGeometry x="434" y="324" width="160" height="40" as="geometry" />
        </mxCell>
        <mxCell id="Erj5YXSd0huWVHEirU5Y-13" style="edgeStyle=orthogonalEdgeStyle;rounded=0;orthogonalLoop=1;jettySize=auto;html=1;entryX=0.5;entryY=0;entryDx=0;entryDy=0;" edge="1" parent="1" source="Erj5YXSd0huWVHEirU5Y-8" target="Erj5YXSd0huWVHEirU5Y-12">
          <mxGeometry relative="1" as="geometry" />
        </mxCell>
        <mxCell id="Erj5YXSd0huWVHEirU5Y-8" value="Nodes-Texts association" style="rounded=1;whiteSpace=wrap;html=1;fillColor=#dae8fc;strokeColor=#6c8ebf;" vertex="1" parent="1">
          <mxGeometry x="240" y="630" width="120" height="60" as="geometry" />
        </mxCell>
        <mxCell id="Erj5YXSd0huWVHEirU5Y-11" style="edgeStyle=orthogonalEdgeStyle;rounded=0;orthogonalLoop=1;jettySize=auto;html=1;endArrow=none;startFill=1;startArrow=classic;exitX=0.5;exitY=0;exitDx=0;exitDy=0;" edge="1" parent="1" source="Erj5YXSd0huWVHEirU5Y-9">
          <mxGeometry relative="1" as="geometry">
            <mxPoint x="400" y="590" as="targetPoint" />
            <Array as="points">
              <mxPoint x="499" y="590" />
              <mxPoint x="400" y="590" />
            </Array>
          </mxGeometry>
        </mxCell>
        <mxCell id="Erj5YXSd0huWVHEirU5Y-14" style="edgeStyle=orthogonalEdgeStyle;rounded=0;orthogonalLoop=1;jettySize=auto;html=1;entryX=0.5;entryY=0;entryDx=0;entryDy=0;endArrow=none;startFill=0;" edge="1" parent="1" source="Erj5YXSd0huWVHEirU5Y-9" target="Erj5YXSd0huWVHEirU5Y-12">
          <mxGeometry relative="1" as="geometry" />
        </mxCell>
        <mxCell id="Erj5YXSd0huWVHEirU5Y-9" value="Arrows-Texts association" style="rounded=1;whiteSpace=wrap;html=1;fillColor=#dae8fc;strokeColor=#6c8ebf;" vertex="1" parent="1">
          <mxGeometry x="439" y="630" width="120" height="60" as="geometry" />
        </mxCell>
        <mxCell id="Erj5YXSd0huWVHEirU5Y-12" value="&lt;div&gt;Diagram Representation&lt;/div&gt;&lt;div&gt;building&lt;/div&gt;" style="rounded=1;whiteSpace=wrap;html=1;fillColor=#e1d5e7;strokeColor=#9673a6;" vertex="1" parent="1">
          <mxGeometry x="341" y="760" width="120" height="60" as="geometry" />
        </mxCell>
        <mxCell id="Erj5YXSd0huWVHEirU5Y-15" value="" style="sketch=0;outlineConnect=0;fontColor=#232F3E;gradientColor=none;fillColor=#232F3D;strokeColor=none;dashed=0;verticalLabelPosition=bottom;verticalAlign=top;align=center;html=1;fontSize=12;fontStyle=0;aspect=fixed;pointerEvents=1;shape=mxgraph.aws4.json_script;" vertex="1" parent="1">
          <mxGeometry x="471.12" y="771" width="27.77" height="38" as="geometry" />
        </mxCell>
      </root>
    </mxGraphModel>
  </diagram>
</mxfile>
